# xmcd CD database file
#
# Track frame offsets:
#	150
#	42922
#	92719
#	137522
#	143926
#	192066
#
# Disc length: 3120 seconds
#
# Revision: 0
# Processed by: cddbd v1.5.2PL0 Copyright (c) Steve Scherf et al.
# Submitted via: CDex 1.77
#
DISCID=4c0c2e06
DTITLE=Pierre de Bethmann - Sisyphe CD 1
DYEAR=2013
DGENRE=Jazz
TTITLE0=Sisyphe
TTITLE1=Volseau
TTITLE2=Patience
TTITLE3=Miniature 1
TTITLE4=Bat Carre
TTITLE5=Knab
EXTD=YEAR: 2013
EXTT0=
EXTT1=
EXTT2=
EXTT3=
EXTT4=
EXTT5=
PLAYORDER=
